G04 #@! TF.GenerationSoftware,KiCad,Pcbnew,5.1.5-52549c5~84~ubuntu19.04.1*
G04 #@! TF.CreationDate,2020-02-05T16:38:27+02:00*
G04 #@! TF.ProjectId,sbus-reader,73627573-2d72-4656-9164-65722e6b6963,rev?*
G04 #@! TF.SameCoordinates,Original*
G04 #@! TF.FileFunction,Copper,L1,Top*
G04 #@! TF.FilePolarity,Positive*
%FSLAX46Y46*%
G04 Gerber Fmt 4.6, Leading zero omitted, Abs format (unit mm)*
G04 Created by KiCad (PCBNEW 5.1.5-52549c5~84~ubuntu19.04.1) date 2020-02-05 16:38:27*
%MOMM*%
%LPD*%
G04 APERTURE LIST*
%ADD10R,0.900000X0.800000*%
%ADD11R,0.700000X1.300000*%
%ADD12R,1.700000X1.700000*%
%ADD13O,1.700000X1.700000*%
%ADD14C,0.400000*%
%ADD15C,0.250000*%
G04 APERTURE END LIST*
D10*
X153740000Y-108645000D03*
X153740000Y-106745000D03*
X151740000Y-107695000D03*
D11*
X151790000Y-102870000D03*
X153690000Y-102870000D03*
X147790000Y-107695000D03*
X149690000Y-107695000D03*
X149690000Y-102870000D03*
X147790000Y-102870000D03*
D12*
X144780000Y-102870000D03*
D13*
X144780000Y-105410000D03*
X144780000Y-107950000D03*
D12*
X157290000Y-102870000D03*
D13*
X157290000Y-105410000D03*
X157290000Y-107950000D03*
D14*
X156440001Y-108799999D02*
X157290000Y-107950000D01*
X155694999Y-109545001D02*
X156440001Y-108799999D01*
X144780000Y-107950000D02*
X146375001Y-109545001D01*
X153790000Y-106745000D02*
X153740000Y-106745000D01*
X154590000Y-107545000D02*
X153790000Y-106745000D01*
X154590000Y-107595000D02*
X154590000Y-107545000D01*
X154945000Y-107950000D02*
X154590000Y-107595000D01*
X157290000Y-107950000D02*
X154945000Y-107950000D01*
X149690000Y-109445002D02*
X149590001Y-109545001D01*
X149690000Y-107695000D02*
X149690000Y-109445002D01*
X146375001Y-109545001D02*
X149590001Y-109545001D01*
X149590001Y-109545001D02*
X155694999Y-109545001D01*
D15*
X154750000Y-102870000D02*
X157290000Y-105410000D01*
X153690000Y-102870000D02*
X154750000Y-102870000D01*
D14*
X156040000Y-102870000D02*
X157290000Y-102870000D01*
X146030000Y-102870000D02*
X147180001Y-101719999D01*
X154889999Y-101719999D02*
X156040000Y-102870000D01*
X144780000Y-102870000D02*
X146030000Y-102870000D01*
X149690000Y-101794998D02*
X149764999Y-101719999D01*
X149690000Y-102870000D02*
X149690000Y-101794998D01*
X147180001Y-101719999D02*
X149764999Y-101719999D01*
X149764999Y-101719999D02*
X154889999Y-101719999D01*
D15*
X147790000Y-107395000D02*
X147790000Y-107695000D01*
X148565001Y-106619999D02*
X147790000Y-107395000D01*
X150614999Y-106619999D02*
X148565001Y-106619999D01*
X151690000Y-107695000D02*
X150614999Y-106619999D01*
X151740000Y-107695000D02*
X151690000Y-107695000D01*
X147790000Y-107695000D02*
X147790000Y-102870000D01*
X145550000Y-105410000D02*
X144780000Y-105410000D01*
X147790000Y-103170000D02*
X145550000Y-105410000D01*
X147790000Y-102870000D02*
X147790000Y-103170000D01*
X153690000Y-108645000D02*
X153740000Y-108645000D01*
X153040000Y-107995000D02*
X153690000Y-108645000D01*
X151790000Y-106410002D02*
X153040000Y-107660002D01*
X153040000Y-107660002D02*
X153040000Y-107995000D01*
X151790000Y-102870000D02*
X151790000Y-106410002D01*
M02*
